<?xml version="1.0" encoding="UTF-8" standalone="no"?>
<!--
  - Copyright 2015-2017 Hayai Software
  - Copyright 2018-2022 The KeikaiLauncher Project
  -
  - Licensed under the Apache License, Version 2.0 (the "License"); you may not use this file except
  - in compliance with the License. You may obtain a copy of the License at
  -
  - http://www.apache.org/licenses/LICENSE-2.0
  -
  - Unless required by applicable law or agreed to in writing, software distributed under the
  - License is distributed on an "AS IS" BASIS, WITHOUT WARRANTIES OR CONDITIONS OF ANY KIND
  - either express or implied. See the License for the specific language governing permissions and
  - limitations under the License.
  -->

<svg
   xmlns="http://www.w3.org/2000/svg"
   height="48"
   version="1.1"
   viewBox="0 0 48 48"
   width="48"
   id="svg7">
  <defs
     id="defs11" />
  <metadata
     id="metadata3566"/>
  <circle
     style="fill:#03a9f4;fill-opacity:1;stroke:none;stroke-width:7.55905533;stroke-miterlimit:4;stroke-dasharray:none;stroke-opacity:1"
     id="path4524"
     cx="24"
     cy="24"
     r="20" />
  <path
     id="path4532"
     style="fill:none;stroke:#ffffff;stroke-width:2;stroke-linecap:round;stroke-linejoin:round;stroke-miterlimit:4;stroke-dasharray:none;stroke-opacity:1"
     d="m 33,33 -9,-9 -9,9 m 3,1 v 5 h 12 v -9"/>
  <path
     style="fill:#ffffff;fill-opacity:1;stroke:none;stroke-width:0.27794072;stroke-linecap:round;stroke-linejoin:round;stroke-miterlimit:4;stroke-dasharray:none;stroke-opacity:1"
     d="m 21.550306,11.221175 c 0.602922,2.462109 -1.171586,4.750981 -2.130402,5.770753 -0.08114,0.08631 0.480719,0.505542 0.413197,0.572999 L 18,18 c -0.09472,-0.02962 0.204662,-0.640408 0.08668,-0.681594 -1.321518,-0.461363 -3.952824,-1.671338 -4.555746,-4.133445 -0.564191,-2.303946 0.576054,-4.3914966 2.9898,-4.9825757 2.413748,-0.5910816 4.436444,0.5967081 5.029565,3.0187897 z"
     id="path4536"/>
  <path
     style="fill:#ffffff;fill-opacity:1;stroke:none;stroke-width:0.28229228;stroke-linecap:round;stroke-linejoin:round;stroke-miterlimit:4;stroke-dasharray:none;stroke-opacity:1"
     d="m 33.762426,15.631109 c -1.317574,2.211848 -4.232753,2.604587 -5.653337,2.65973 C 27.988871,18.295439 28.096929,18.999271 28,19 l -1.636916,-0.99102 c -0.04747,-0.08892 0.604386,-0.317789 0.548326,-0.431649 -0.627989,-1.275391 -1.670794,-4.025858 -0.353221,-6.237707 1.232933,-2.0697598 3.545548,-2.7686161 5.713948,-1.4769234 2.168404,1.2916924 2.786442,3.5925194 1.490289,5.7684084 z"
     id="path4536-3-6"/>
  <path
     style="fill:#ffffff;fill-opacity:1;stroke:#03a9f4;stroke-width:1.14886296;stroke-linecap:round;stroke-linejoin:round;stroke-miterlimit:4;stroke-dasharray:none;stroke-opacity:1;paint-order:stroke fill markers"
     d="m 28.536406,10.595494 c 0,2.821795 -2.524727,4.826789 -3.831459,5.675546 C 24.594369,16.34287 25.090869,16.94494 25,17 l -2.097238,-0.01493 c -0.09457,-0.0571 0.390856,-0.638251 0.2742,-0.71402 -1.306733,-0.848762 -3.831459,-2.853756 -3.831459,-5.675551 0,-2.6405242 1.785626,-4.5957784 4.551993,-4.5957784 2.766369,-2.5e-6 4.63891,1.8198583 4.63891,4.5957784 z"
     id="path4536-3"/>
  <path
     style="fill:none;stroke:#ffffff;stroke-width:0.5;stroke-linecap:butt;stroke-linejoin:miter;stroke-miterlimit:4;stroke-dasharray:none;stroke-opacity:1"
     d="M 24,24 C 22.376499,23.95825 18.806757,18 18.562959,16.543084"
     id="path4573"/>
  <path
     style="fill:none;stroke:#ffffff;stroke-width:0.5;stroke-linecap:butt;stroke-linejoin:miter;stroke-miterlimit:4;stroke-dasharray:none;stroke-opacity:1"
     d="m 24,16 c -0.313388,2.194656 -0.917361,3.951648 0,8"
     id="path4575"/>
  <path
     style="fill:none;stroke:#fffff5;stroke-width:0.5;stroke-linecap:butt;stroke-linejoin:miter;stroke-miterlimit:4;stroke-dasharray:none;stroke-opacity:1"
     d="m 24,24 c 1.37168,-1.846818 2.598973,-3.794686 3.458408,-6"
     id="path4577"/>
</svg>
